<svg width="1790.0826171874999px" height="122.063720703125px" xmlns="http://www.w3.org/2000/svg" viewBox="-645.0413085937499 13.9681396484375 1790.0826171874999 122.063720703125" style="background-color: rgb(68, 60, 104);" preserveAspectRatio="xMidYMid"><defs><filter id="editing-hover" x="-100%" y="-100%" width="300%" height="300%"><feFlood flood-color="#052b4a" result="flood"></feFlood><feComposite operator="in" in2="SourceAlpha" in="flood" result="shadow"></feComposite><feOffset dx="-4" dy="-4" in="SourceGraphic" result="offset-1"></feOffset><feOffset dx="4" dy="4" in="shadow" result="offset-2"></feOffset><feMerge><feMergeNode in="offset-2"></feMergeNode><feMergeNode in="offset-1"></feMergeNode></feMerge></filter></defs><g filter="url(#editing-hover)"><g transform="translate(-395.6350048780441, 98.8671875)"><path d="M26.05-29.57L26.05-29.57L26.05-29.57Q27.01-31.49 27.01-33.28L27.01-33.28L27.01-33.28Q27.01-35.07 26.82-36.06L26.82-36.06L26.82-36.06Q26.62-37.06 26.18-37.82L26.18-37.82L26.18-37.82Q25.22-39.49 23.30-39.49L23.30-39.49L23.30-39.49Q20.93-39.49 19.01-37.76L19.01-37.76L19.01-37.76Q16.96-35.97 16.96-33.15L16.96-33.15L16.96-33.15Q16.96-31.36 18.21-29.98L18.21-29.98L18.21-29.98Q19.46-28.61 21.38-27.33L21.38-27.33L21.38-27.33Q23.30-26.05 25.47-24.77L25.47-24.77L25.47-24.77Q27.65-23.49 29.57-21.95L29.57-21.95L29.57-21.95Q33.98-18.43 33.98-13.70L33.98-13.70L33.98-13.70Q33.98-10.50 32.29-7.78L32.29-7.78L32.29-7.78Q30.59-5.06 27.78-3.07L27.78-3.07L27.78-3.07Q21.63 1.28 13.50 1.28L13.50 1.28L13.50 1.28Q6.91 1.28 3.52-0.86L3.52-0.86L3.52-0.86Q0.13-3.01 0.13-6.27L0.13-6.27L0.13-6.27Q0.13-12.10 4.67-13.57L4.67-13.57L4.67-13.57Q5.95-14.02 7.90-14.02L7.90-14.02L7.90-14.02Q9.86-14.02 12.10-13.18L12.10-13.18L12.10-13.18Q11.07-10.56 11.07-8.19L11.07-8.19L11.07-8.19Q11.07-3.07 14.72-3.07L14.72-3.07L14.72-3.07Q17.09-3.07 19.04-4.80L19.04-4.80L19.04-4.80Q20.99-6.53 20.99-8.48L20.99-8.48L20.99-8.48Q20.99-10.43 19.74-11.84L19.74-11.84L19.74-11.84Q18.50-13.25 16.64-14.37L16.64-14.37L16.64-14.37Q14.78-15.49 12.64-16.58L12.64-16.58L12.64-16.58Q10.50-17.66 8.64-19.20L8.64-19.20L8.64-19.20Q4.29-22.72 4.29-28.35L4.29-28.35L4.29-28.35Q4.29-32 6.08-34.85L6.08-34.85L6.08-34.85Q7.87-37.70 10.75-39.62L10.75-39.62L10.75-39.62Q16.51-43.52 23.58-43.52L23.58-43.52L23.58-43.52Q30.66-43.52 34.08-41.41L34.08-41.41L34.08-41.41Q37.50-39.30 37.50-35.71L37.50-35.71L37.50-35.71Q37.50-32.58 35.07-30.59L35.07-30.59L35.07-30.59Q32.96-28.93 30.40-28.93L30.40-28.93L30.40-28.93Q27.84-28.93 26.05-29.57ZM59.39-2.69L59.39-2.69L59.39-2.69Q56.32 1.28 48.70 1.28L48.70 1.28L48.70 1.28Q44.74 1.28 41.86-1.12L41.86-1.12L41.86-1.12Q38.98-3.52 38.98-6.98L38.98-6.98L38.98-6.98Q38.98-8.90 39.17-9.86L39.17-9.86L43.46-32.64L56.45-33.92L51.78-9.22L51.78-9.22Q51.52-7.81 51.52-6.98L51.52-6.98L51.52-6.98Q51.52-3.26 53.76-3.26L53.76-3.26L53.76-3.26Q56.26-3.26 58.05-6.66L58.05-6.66L58.05-6.66Q58.62-7.74 58.88-9.15L58.88-9.15L63.42-32.64L76.03-33.92L71.30-8.96L71.30-8.96Q71.10-8 71.10-6.98L71.10-6.98L71.10-6.98Q71.10-5.95 71.68-4.83L71.68-4.83L71.68-4.83Q72.26-3.71 74.11-3.46L74.11-3.46L74.11-3.46Q73.73-1.92 72.38-0.90L72.38-0.90L72.38-0.90Q69.57 1.28 66.53 1.28L66.53 1.28L66.53 1.28Q63.49 1.28 61.70 0.19L61.70 0.19L61.70 0.19Q59.90-0.90 59.39-2.69ZM78.66-3.07L78.66-3.07L86.59-44.80L99.58-46.08L97.60-36.29L97.60-36.29Q96.90-33.28 96-31.17L96-31.17L96-31.17Q97.41-32.96 100.48-33.66L100.48-33.66L100.48-33.66Q101.38-33.92 102.46-33.92L102.46-33.92L102.46-33.92Q108.42-33.92 111.68-30.30L111.68-30.30L111.68-30.30Q114.94-26.69 114.94-19.71L114.94-19.71L114.94-19.71Q114.94-10.62 109.76-4.93L109.76-4.93L109.76-4.93Q104.19 1.28 94.08 1.28L94.08 1.28L94.08 1.28Q87.10 1.28 81.86-1.02L81.86-1.02L81.86-1.02Q80-1.86 78.66-3.07ZM94.91-22.40L91.52-3.65L91.52-3.65Q92.86-2.50 94.53-2.50L94.53-2.50L94.53-2.50Q96.19-2.50 97.15-3.14L97.15-3.14L97.15-3.14Q98.11-3.78 98.82-5.06L98.82-5.06L98.82-5.06Q100.74-8.51 102.27-19.07L102.27-19.07L102.27-19.07Q102.72-22.08 102.72-25.09L102.72-25.09L102.72-25.09Q102.72-28.10 102.05-29.06L102.05-29.06L102.05-29.06Q101.38-30.02 100.10-30.02L100.10-30.02L100.10-30.02Q96.19-30.02 94.91-22.40L94.91-22.40ZM137.92-22.46L137.92-22.46L137.92-22.46Q138.82-24.83 138.82-26.88L138.82-26.88L138.82-26.88Q138.82-30.66 135.74-30.66L135.74-30.66L135.74-30.66Q134.14-30.66 132.83-29.22L132.83-29.22L132.83-29.22Q131.52-27.78 131.52-25.98L131.52-25.98L131.52-25.98Q131.52-24.70 132.54-23.68L132.54-23.68L132.54-23.68Q134.02-22.27 137.79-19.97L137.79-19.97L137.79-19.97Q141.57-17.66 143.01-15.78L143.01-15.78L143.01-15.78Q144.45-13.89 144.45-11.30L144.45-11.30L144.45-11.30Q144.45-8.70 143.20-6.34L143.20-6.34L143.20-6.34Q141.95-3.97 139.71-2.30L139.71-2.30L139.71-2.30Q134.91 1.28 127.23 1.28L127.23 1.28L127.23 1.28Q123.07 1.28 119.87-0.90L119.87-0.90L119.87-0.90Q116.67-3.01 116.67-5.50L116.67-5.50L116.67-5.50Q116.67-8 118.50-9.47L118.50-9.47L118.50-9.47Q120.32-10.94 123.01-10.94L123.01-10.94L123.01-10.94Q125.70-10.94 127.36-9.92L127.36-9.92L127.36-9.92Q126.53-7.81 126.53-6.40L126.53-6.40L126.53-6.40Q126.53-2.18 130.11-2.18L130.11-2.18L130.11-2.18Q131.65-2.18 132.67-3.14L132.67-3.14L132.67-3.14Q133.70-4.10 133.70-5.76L133.70-5.76L133.70-5.76Q133.70-9.02 128.19-12.48L128.19-12.48L128.19-12.48Q123.71-15.42 122.69-16.58L122.69-16.58L122.69-16.58Q120.96-18.62 120.96-21.18L120.96-21.18L120.96-21.18Q120.96-23.74 122.18-26.18L122.18-26.18L122.18-26.18Q123.39-28.61 125.63-30.34L125.63-30.34L125.63-30.34Q130.30-33.92 138.43-33.92L138.43-33.92L138.43-33.92Q142.59-33.92 145.06-32.26L145.06-32.26L145.06-32.26Q147.52-30.59 147.52-27.78L147.52-27.78L147.52-27.78Q147.52-24.96 145.82-23.36L145.82-23.36L145.82-23.36Q144.13-21.76 141.06-21.76L141.06-21.76L141.06-21.76Q138.94-21.76 137.92-22.46ZM150.91-6.40L150.91-6.40L150.91-6.40Q150.91-8.13 151.81-12.48L151.81-12.48L155.20-29.76L151.42-29.76L151.68-31.68L151.68-31.68Q159.36-33.98 166.78-39.62L166.78-39.62L169.86-39.62L168.32-32.64L173.31-32.64L172.74-29.76L167.81-29.76L164.54-12.48L164.54-12.48Q163.71-8.51 163.71-7.17L163.71-7.17L163.71-7.17Q163.71-4.10 166.40-3.46L166.40-3.46L166.40-3.46Q165.76-1.28 163.46 0L163.46 0L163.46 0Q161.15 1.28 157.89 1.28L157.89 1.28L157.89 1.28Q154.62 1.28 152.77-0.77L152.77-0.77L152.77-0.77Q150.91-2.82 150.91-6.40ZM175.52-1.92L175.52-1.92L175.52-1.92Q174.02-3.58 173.34-6.21L173.34-6.21L173.34-6.21Q172.67-8.83 172.67-13.12L172.67-13.12L172.67-13.12Q172.67-17.41 174.14-21.31L174.14-21.31L174.14-21.31Q175.62-25.22 178.30-28.03L178.30-28.03L178.30-28.03Q183.81-33.92 192.90-33.92L192.90-33.92L192.90-33.92Q196.16-33.92 198.53-32.83L198.53-32.83L209.47-33.92L204.74-8.96L204.74-8.96Q204.54-8.19 204.54-6.78L204.54-6.78L204.54-6.78Q204.54-5.38 205.41-4.48L205.41-4.48L205.41-4.48Q206.27-3.58 207.55-3.46L207.55-3.46L207.55-3.46Q206.91-1.28 204.58 0L204.58 0L204.58 0Q202.24 1.28 199.62 1.28L199.62 1.28L199.62 1.28Q196.99 1.28 195.23 0.29L195.23 0.29L195.23 0.29Q193.47-0.70 192.96-2.37L192.96-2.37L192.96-2.37Q191.94-0.77 189.76 0.26L189.76 0.26L189.76 0.26Q187.58 1.28 184.67 1.28L184.67 1.28L184.67 1.28Q181.76 1.28 179.39 0.51L179.39 0.51L179.39 0.51Q177.02-0.26 175.52-1.92ZM189.02-27.90L189.02-27.90L189.02-27.90Q188.29-26.75 187.65-24.80L187.65-24.80L187.65-24.80Q187.01-22.85 185.95-17.63L185.95-17.63L185.95-17.63Q184.90-12.42 184.90-8.70L184.90-8.70L184.90-8.70Q184.90-4.99 185.47-3.90L185.47-3.90L185.47-3.90Q186.05-2.82 187.07-2.82L187.07-2.82L187.07-2.82Q189.12-2.82 190.62-4.77L190.62-4.77L190.62-4.77Q192.13-6.72 192.70-10.18L192.70-10.18L196.10-28.93L196.10-28.93Q194.75-30.08 193.18-30.08L193.18-30.08L193.18-30.08Q191.62-30.08 190.69-29.57L190.69-29.57L190.69-29.57Q189.76-29.06 189.02-27.90ZM240 1.28L240 1.28L240 1.28Q232.26 1.28 232.26-4.74L232.26-4.74L232.26-4.74Q232.32-6.40 232.83-9.22L232.83-9.22L233.98-15.10L233.98-15.10Q235.71-23.42 235.71-25.28L235.71-25.28L235.71-25.28Q235.71-28.99 233.54-28.99L233.54-28.99L233.54-28.99Q229.89-28.99 227.97-19.46L227.97-19.46L224.19 0L211.33 1.28L217.98-32.70L228.48-33.92L227.46-27.65L227.46-27.65Q230.46-33.92 239.68-33.92L239.68-33.92L239.68-33.92Q244.16-33.92 246.05-32.03L246.05-32.03L246.05-32.03Q247.94-30.14 247.94-25.92L247.94-25.92L247.94-25.92Q247.94-21.95 245.89-12.67L245.89-12.67L245.89-12.67Q244.93-8.51 244.93-6.94L244.93-6.94L244.93-6.94Q244.93-5.38 245.79-4.48L245.79-4.48L245.79-4.48Q246.66-3.58 247.94-3.46L247.94-3.46L247.94-3.46Q247.30-1.28 245.09 0L245.09 0L245.09 0Q242.88 1.28 240 1.28ZM254.08-6.40L254.08-6.40L254.08-6.40Q254.08-8.13 254.98-12.48L254.98-12.48L258.37-29.76L254.59-29.76L254.85-31.68L254.85-31.68Q262.53-33.98 269.95-39.62L269.95-39.62L273.02-39.62L271.49-32.64L276.48-32.64L275.90-29.76L270.98-29.76L267.71-12.48L267.71-12.48Q266.88-8.51 266.88-7.17L266.88-7.17L266.88-7.17Q266.88-4.10 269.57-3.46L269.57-3.46L269.57-3.46Q268.93-1.28 266.62 0L266.62 0L266.62 0Q264.32 1.28 261.06 1.28L261.06 1.28L261.06 1.28Q257.79 1.28 255.94-0.77L255.94-0.77L255.94-0.77Q254.08-2.82 254.08-6.40ZM291.52-3.52L291.52-3.52L291.52-3.52Q289.54 1.28 283.20 1.28L283.20 1.28L283.20 1.28Q279.94 1.28 277.89-0.96L277.89-0.96L277.89-0.96Q276.16-2.94 276.16-4.93L276.16-4.93L276.16-4.93Q276.16-10.11 278.53-20.22L278.53-20.22L280.90-32.64L293.89-33.92L289.98-13.70L289.98-13.70Q288.90-8.96 288.90-7.30L288.90-7.30L288.90-7.30Q288.90-3.65 291.52-3.52ZM282.05-41.54L282.05-41.54L282.05-41.54Q282.05-44.03 284.13-45.38L284.13-45.38L284.13-45.38Q286.21-46.72 289.22-46.72L289.22-46.72L289.22-46.72Q292.22-46.72 294.05-45.38L294.05-45.38L294.05-45.38Q295.87-44.03 295.87-41.54L295.87-41.54L295.87-41.54Q295.87-39.04 293.86-37.76L293.86-37.76L293.86-37.76Q291.84-36.48 288.83-36.48L288.83-36.48L288.83-36.48Q285.82-36.48 283.94-37.76L283.94-37.76L283.94-37.76Q282.05-39.04 282.05-41.54ZM320.19-31.55L320.19-31.55L320.19-31.55Q322.30-33.92 325.95-33.92L325.95-33.92L325.95-33.92Q328.19-33.92 329.92-32.70L329.92-32.70L329.92-32.70Q331.65-31.49 331.65-29.22L331.65-29.22L331.65-29.22Q331.65-26.94 330.94-24.51L330.94-24.51L330.94-24.51Q330.24-22.08 329.15-19.58L329.15-19.58L329.15-19.58Q326.98-14.72 323.97-10.69L323.97-10.69L323.97-10.69Q319.74-4.86 315.68-1.79L315.68-1.79L315.68-1.79Q311.62 1.28 307.20 1.28L307.20 1.28L307.20 1.28Q303.62 1.28 301.44 0.45L301.44 0.45L301.44 0.45Q301.06-12.99 300.58-17.79L300.58-17.79L300.58-17.79Q300.10-22.59 299.71-25.22L299.71-25.22L299.71-25.22Q299.07-30.34 297.15-31.55L297.15-31.55L297.15-31.55Q298.62-32.83 300.06-33.38L300.06-33.38L300.06-33.38Q301.50-33.92 304.48-33.92L304.48-33.92L304.48-33.92Q307.46-33.92 309.57-31.58L309.57-31.58L309.57-31.58Q311.68-29.25 312.10-25.12L312.10-25.12L312.10-25.12Q312.51-20.99 312.51-16L312.51-16L312.51-16Q312.51-11.01 312.13-4.99L312.13-4.99L312.13-4.99Q314.11-6.40 316.22-10.69L316.22-10.69L316.22-10.69Q319.10-16.64 320.13-23.81L320.13-23.81L320.13-23.81Q320.45-25.98 320.45-28.29L320.45-28.29L320.45-28.29Q320.45-30.59 320.19-31.55ZM359.30-10.82L359.30-10.82L359.30-10.82Q360.90-9.73 360.90-7.33L360.90-7.33L360.90-7.33Q360.90-4.93 359.68-3.39L359.68-3.39L359.68-3.39Q358.46-1.86 356.48-0.83L356.48-0.83L356.48-0.83Q352.38 1.28 347.97 1.28L347.97 1.28L347.97 1.28Q343.55 1.28 340.96 0.32L340.96 0.32L340.96 0.32Q338.37-0.64 336.64-2.43L336.64-2.43L336.64-2.43Q333.25-5.82 333.25-12.03L333.25-12.03L333.25-12.03Q333.25-21.70 338.50-27.58L338.50-27.58L338.50-27.58Q344.13-33.92 353.92-33.92L353.92-33.92L353.92-33.92Q360-33.92 363.01-31.36L363.01-31.36L363.01-31.36Q365.25-29.44 365.25-26.30L365.25-26.30L365.25-26.30Q365.25-15.04 345.79-15.04L345.79-15.04L345.79-15.04Q345.54-13.38 345.54-11.97L345.54-11.97L345.54-11.97Q345.54-9.02 346.85-7.90L346.85-7.90L346.85-7.90Q348.16-6.78 350.59-6.78L350.59-6.78L350.59-6.78Q353.02-6.78 355.62-7.90L355.62-7.90L355.62-7.90Q358.21-9.02 359.30-10.82ZM346.24-17.79L346.24-17.79L346.24-17.79Q350.78-17.79 353.41-20.61L353.41-20.61L353.41-20.61Q356.03-23.30 356.03-27.58L356.03-27.58L356.03-27.58Q356.03-29.06 355.49-29.86L355.49-29.86L355.49-29.86Q354.94-30.66 353.86-30.66L353.86-30.66L353.86-30.66Q352.77-30.66 351.84-30.24L351.84-30.24L351.84-30.24Q350.91-29.82 349.95-28.42L349.95-28.42L349.95-28.42Q347.58-25.22 346.24-17.79ZM393.73 0L380.03 0L387.84-42.05L387.84-42.05Q394.18-42.75 403.42-42.75L403.42-42.75L403.42-42.75Q412.67-42.75 416.96-40.06L416.96-40.06L416.96-40.06Q421.25-37.38 421.25-31.97L421.25-31.97L421.25-31.97Q421.25-26.56 418.46-23.17L418.46-23.17L418.46-23.17Q415.68-19.78 410.88-18.69L410.88-18.69L410.88-18.69Q411.97-13.38 414.46-9.09L414.46-9.09L414.46-9.09Q416.77-5.06 419.46-3.78L419.46-3.78L419.46-3.78Q418.50-1.09 416.54 0.10L416.54 0.10L416.54 0.10Q414.59 1.28 411.81 1.28L411.81 1.28L411.81 1.28Q409.02 1.28 406.85-0.35L406.85-0.35L406.85-0.35Q404.67-1.98 402.94-4.99L402.94-4.99L402.94-4.99Q399.30-11.52 398.91-21.82L398.91-21.82L399.36-21.82L399.36-21.82Q404.10-21.95 406.46-24.42L406.46-24.42L406.46-24.42Q408.83-26.88 408.83-32.06L408.83-32.06L408.83-32.06Q408.83-38.53 403.39-38.78L403.39-38.78L401.98-38.78L401.98-38.78Q401.41-38.78 401.09-38.72L401.09-38.72L393.73 0ZM450.11-10.82L450.11-10.82L450.11-10.82Q451.71-9.73 451.71-7.33L451.71-7.33L451.71-7.33Q451.71-4.93 450.50-3.39L450.50-3.39L450.50-3.39Q449.28-1.86 447.30-0.83L447.30-0.83L447.30-0.83Q443.20 1.28 438.78 1.28L438.78 1.28L438.78 1.28Q434.37 1.28 431.78 0.32L431.78 0.32L431.78 0.32Q429.18-0.64 427.46-2.43L427.46-2.43L427.46-2.43Q424.06-5.82 424.06-12.03L424.06-12.03L424.06-12.03Q424.06-21.70 429.31-27.58L429.31-27.58L429.31-27.58Q434.94-33.92 444.74-33.92L444.74-33.92L444.74-33.92Q450.82-33.92 453.82-31.36L453.82-31.36L453.82-31.36Q456.06-29.44 456.06-26.30L456.06-26.30L456.06-26.30Q456.06-15.04 436.61-15.04L436.61-15.04L436.61-15.04Q436.35-13.38 436.35-11.97L436.35-11.97L436.35-11.97Q436.35-9.02 437.66-7.90L437.66-7.90L437.66-7.90Q438.98-6.78 441.41-6.78L441.41-6.78L441.41-6.78Q443.84-6.78 446.43-7.90L446.43-7.90L446.43-7.90Q449.02-9.02 450.11-10.82ZM437.06-17.79L437.06-17.79L437.06-17.79Q441.60-17.79 444.22-20.61L444.22-20.61L444.22-20.61Q446.85-23.30 446.85-27.58L446.85-27.58L446.85-27.58Q446.85-29.06 446.30-29.86L446.30-29.86L446.30-29.86Q445.76-30.66 444.67-30.66L444.67-30.66L444.67-30.66Q443.58-30.66 442.66-30.24L442.66-30.24L442.66-30.24Q441.73-29.82 440.77-28.42L440.77-28.42L440.77-28.42Q438.40-25.22 437.06-17.79ZM477.38-22.46L477.38-22.46L477.38-22.46Q478.27-24.83 478.27-26.88L478.27-26.88L478.27-26.88Q478.27-30.66 475.20-30.66L475.20-30.66L475.20-30.66Q473.60-30.66 472.29-29.22L472.29-29.22L472.29-29.22Q470.98-27.78 470.98-25.98L470.98-25.98L470.98-25.98Q470.98-24.70 472.00-23.68L472.00-23.68L472.00-23.68Q473.47-22.27 477.25-19.97L477.25-19.97L477.25-19.97Q481.02-17.66 482.46-15.78L482.46-15.78L482.46-15.78Q483.90-13.89 483.90-11.30L483.90-11.30L483.90-11.30Q483.90-8.70 482.66-6.34L482.66-6.34L482.66-6.34Q481.41-3.97 479.17-2.30L479.17-2.30L479.17-2.30Q474.37 1.28 466.69 1.28L466.69 1.28L466.69 1.28Q462.53 1.28 459.33-0.90L459.33-0.90L459.33-0.90Q456.13-3.01 456.13-5.50L456.13-5.50L456.13-5.50Q456.13-8 457.95-9.47L457.95-9.47L457.95-9.47Q459.78-10.94 462.46-10.94L462.46-10.94L462.46-10.94Q465.15-10.94 466.82-9.92L466.82-9.92L466.82-9.92Q465.98-7.81 465.98-6.40L465.98-6.40L465.98-6.40Q465.98-2.18 469.57-2.18L469.57-2.18L469.57-2.18Q471.10-2.18 472.13-3.14L472.13-3.14L472.13-3.14Q473.15-4.10 473.15-5.76L473.15-5.76L473.15-5.76Q473.15-9.02 467.65-12.48L467.65-12.48L467.65-12.48Q463.17-15.42 462.14-16.58L462.14-16.58L462.14-16.58Q460.42-18.62 460.42-21.18L460.42-21.18L460.42-21.18Q460.42-23.74 461.63-26.18L461.63-26.18L461.63-26.18Q462.85-28.61 465.09-30.34L465.09-30.34L465.09-30.34Q469.76-33.92 477.89-33.92L477.89-33.92L477.89-33.92Q482.05-33.92 484.51-32.26L484.51-32.26L484.51-32.26Q486.98-30.59 486.98-27.78L486.98-27.78L486.98-27.78Q486.98-24.96 485.28-23.36L485.28-23.36L485.28-23.36Q483.58-21.76 480.51-21.76L480.51-21.76L480.51-21.76Q478.40-21.76 477.38-22.46ZM515.26-10.82L515.26-10.82L515.26-10.82Q516.86-9.73 516.86-7.33L516.86-7.33L516.86-7.33Q516.86-4.93 515.65-3.39L515.65-3.39L515.65-3.39Q514.43-1.86 512.45-0.83L512.45-0.83L512.45-0.83Q508.35 1.28 503.94 1.28L503.94 1.28L503.94 1.28Q499.52 1.28 496.93 0.32L496.93 0.32L496.93 0.32Q494.34-0.64 492.61-2.43L492.61-2.43L492.61-2.43Q489.22-5.82 489.22-12.03L489.22-12.03L489.22-12.03Q489.22-21.70 494.46-27.58L494.46-27.58L494.46-27.58Q500.10-33.92 509.89-33.92L509.89-33.92L509.89-33.92Q515.97-33.92 518.98-31.36L518.98-31.36L518.98-31.36Q521.22-29.44 521.22-26.30L521.22-26.30L521.22-26.30Q521.22-15.04 501.76-15.04L501.76-15.04L501.76-15.04Q501.50-13.38 501.50-11.97L501.50-11.97L501.50-11.97Q501.50-9.02 502.82-7.90L502.82-7.90L502.82-7.90Q504.13-6.78 506.56-6.78L506.56-6.78L506.56-6.78Q508.99-6.78 511.58-7.90L511.58-7.90L511.58-7.90Q514.18-9.02 515.26-10.82ZM502.21-17.79L502.21-17.79L502.21-17.79Q506.75-17.79 509.38-20.61L509.38-20.61L509.38-20.61Q512-23.30 512-27.58L512-27.58L512-27.58Q512-29.06 511.46-29.86L511.46-29.86L511.46-29.86Q510.91-30.66 509.82-30.66L509.82-30.66L509.82-30.66Q508.74-30.66 507.81-30.24L507.81-30.24L507.81-30.24Q506.88-29.82 505.92-28.42L505.92-28.42L505.92-28.42Q503.55-25.22 502.21-17.79ZM526.18-1.92L526.18-1.92L526.18-1.92Q524.67-3.58 524.00-6.21L524.00-6.21L524.00-6.21Q523.33-8.83 523.33-13.12L523.33-13.12L523.33-13.12Q523.33-17.41 524.80-21.31L524.80-21.31L524.80-21.31Q526.27-25.22 528.96-28.03L528.96-28.03L528.96-28.03Q534.46-33.92 543.55-33.92L543.55-33.92L543.55-33.92Q546.82-33.92 549.18-32.83L549.18-32.83L560.13-33.92L555.39-8.96L555.39-8.96Q555.20-8.19 555.20-6.78L555.20-6.78L555.20-6.78Q555.20-5.38 556.06-4.48L556.06-4.48L556.06-4.48Q556.93-3.58 558.21-3.46L558.21-3.46L558.21-3.46Q557.57-1.28 555.23 0L555.23 0L555.23 0Q552.90 1.28 550.27 1.28L550.27 1.28L550.27 1.28Q547.65 1.28 545.89 0.29L545.89 0.29L545.89 0.29Q544.13-0.70 543.62-2.37L543.62-2.37L543.62-2.37Q542.59-0.77 540.42 0.26L540.42 0.26L540.42 0.26Q538.24 1.28 535.33 1.28L535.33 1.28L535.33 1.28Q532.42 1.28 530.05 0.51L530.05 0.51L530.05 0.51Q527.68-0.26 526.18-1.92ZM539.68-27.90L539.68-27.90L539.68-27.90Q538.94-26.75 538.30-24.80L538.30-24.80L538.30-24.80Q537.66-22.85 536.61-17.63L536.61-17.63L536.61-17.63Q535.55-12.42 535.55-8.70L535.55-8.70L535.55-8.70Q535.55-4.99 536.13-3.90L536.13-3.90L536.13-3.90Q536.70-2.82 537.73-2.82L537.73-2.82L537.73-2.82Q539.78-2.82 541.28-4.77L541.28-4.77L541.28-4.77Q542.78-6.72 543.36-10.18L543.36-10.18L546.75-28.93L546.75-28.93Q545.41-30.08 543.84-30.08L543.84-30.08L543.84-30.08Q542.27-30.08 541.34-29.57L541.34-29.57L541.34-29.57Q540.42-29.06 539.68-27.90ZM583.62-17.98L583.62-17.98L583.62-17.98Q585.92-22.08 585.92-26.24L585.92-26.24L585.92-26.24Q585.92-28.99 583.94-28.99L583.94-28.99L583.94-28.99Q582.40-28.99 580.80-26.37L580.80-26.37L580.80-26.37Q579.14-23.74 578.62-20.35L578.62-20.35L575.30 0L562.05 1.28L568.58-32.64L579.14-33.92L577.98-27.46L577.98-27.46Q581.12-33.92 588.16-33.92L588.16-33.92L588.16-33.92Q591.87-33.92 593.89-32L593.89-32L593.89-32Q595.90-30.08 595.90-26.14L595.90-26.14L595.90-26.14Q595.90-22.21 593.31-19.71L593.31-19.71L593.31-19.71Q590.72-17.22 586.30-17.22L586.30-17.22L586.30-17.22Q584.38-17.22 583.62-17.98ZM628.35-26.62L628.35-26.62L628.35-26.62Q628.35-23.94 626.11-22.27L626.11-22.27L626.11-22.27Q623.87-20.61 620.22-20.61L620.22-20.61L620.22-20.61Q618.69-20.61 617.79-21.06L617.79-21.06L617.79-21.06Q618.50-22.72 618.72-24.80L618.72-24.80L618.72-24.80Q618.94-26.88 618.94-27.46L618.94-27.46L618.94-27.46Q618.94-30.14 617.09-30.14L617.09-30.14L617.09-30.14Q615.81-30.14 614.37-28.54L614.37-28.54L614.37-28.54Q612.93-26.94 611.71-24.45L611.71-24.45L611.71-24.45Q609.02-18.69 609.02-12.86L609.02-12.86L609.02-12.86Q609.02-9.66 610.24-8.22L610.24-8.22L610.24-8.22Q611.46-6.78 614.14-6.78L614.14-6.78L614.14-6.78Q617.86-6.78 620.80-9.86L620.80-9.86L620.80-9.86Q621.63-10.82 622.08-11.90L622.08-11.90L622.08-11.90Q624.51-10.62 624.51-7.10L624.51-7.10L624.51-7.10Q624.51-3.52 620.54-1.15L620.54-1.15L620.54-1.15Q616.45 1.28 609.92 1.28L609.92 1.28L609.92 1.28Q596.93 1.28 596.93-12.48L596.93-12.48L596.93-12.48Q596.93-22.53 602.62-28.29L602.62-28.29L602.62-28.29Q608.13-33.92 618.24-33.92L618.24-33.92L618.24-33.92Q628.35-33.92 628.35-26.62ZM662.27-7.10L662.27-7.10L662.27-7.10Q662.27-4.29 665.15-3.46L665.15-3.46L665.15-3.46Q664.45-1.09 661.70 0.19L661.70 0.19L661.70 0.19Q659.39 1.28 656.86 1.28L656.86 1.28L656.86 1.28Q654.34 1.28 653.02 0.61L653.02 0.61L653.02 0.61Q651.71-0.06 651.01-1.15L651.01-1.15L651.01-1.15Q649.86-2.82 649.86-5.95L649.86-5.95L649.86-5.95Q649.86-7.81 650.88-12.93L650.88-12.93L651.78-17.79L651.78-17.79Q652.86-23.36 652.86-25.41L652.86-25.41L652.86-25.41Q652.86-28.99 650.88-28.99L650.88-28.99L650.88-28.99Q648.38-28.99 646.78-25.34L646.78-25.34L646.78-25.34Q646.14-23.94 645.70-21.82L645.70-21.82L641.34 0L628.48 1.28L637.50-44.80L650.37-46.08L649.86-43.52L649.86-43.52Q648.06-33.66 646.53-30.34L646.53-30.34L646.53-30.34Q650.11-33.92 656.70-33.92L656.70-33.92L656.70-33.92Q663.68-33.92 664.96-29.31L664.96-29.31L664.96-29.31Q665.41-27.84 665.41-26.56L665.41-26.56L665.41-26.56Q665.41-25.28 665.31-24.29L665.31-24.29L665.31-24.29Q665.22-23.30 664.90-21.50L664.90-21.50L664.06-16.90L662.59-9.66L662.59-9.66Q662.27-8.19 662.27-7.10ZM685.89-10.37L685.89-10.37L685.89-10.37Q683.84-11.84 683.84-14.66L683.84-14.66L683.84-14.66Q683.84-16.19 684.61-17.44L684.61-17.44L684.61-17.44Q685.38-18.69 686.91-18.88L686.91-18.88L699.52-18.88L699.52-18.88Q701.63-18.88 702.27-20.16L702.27-20.16L702.27-20.16Q703.30-19.58 703.74-18.37L703.74-18.37L703.74-18.37Q704.19-17.15 704.19-15.87L704.19-15.87L704.19-15.87Q704.19-14.59 703.20-13.34L703.20-13.34L703.20-13.34Q702.21-12.10 700.74-11.97L700.74-11.97L689.02-11.97L689.02-11.97Q687.68-11.97 687.04-11.55L687.04-11.55L687.04-11.55Q686.40-11.14 685.89-10.37ZM755.20-13.25L755.20-13.25L755.20-13.25Q756.86-12.03 756.86-9.44L756.86-9.44L756.86-9.44Q756.86-6.85 755.74-5.02L755.74-5.02L755.74-5.02Q754.62-3.20 752.45-1.79L752.45-1.79L752.45-1.79Q747.78 1.22 739.62 1.22L739.62 1.22L739.62 1.22Q731.46 1.22 727.01-3.04L727.01-3.04L727.01-3.04Q722.56-7.30 722.56-14.85L722.56-14.85L722.56-14.85Q722.56-25.54 728.13-33.66L728.13-33.66L728.13-33.66Q732.35-39.68 739.90-42.24L739.90-42.24L739.90-42.24Q743.81-43.52 747.65-43.52L747.65-43.52L747.65-43.52Q751.49-43.52 753.86-43.01L753.86-43.01L753.86-43.01Q756.22-42.50 758.02-41.47L758.02-41.47L758.02-41.47Q761.92-39.23 761.92-35.65L761.92-35.65L761.92-35.65Q761.92-32.38 758.85-29.95L758.85-29.95L758.85-29.95Q756.03-27.78 753.73-27.78L753.73-27.78L753.73-27.78Q751.42-27.78 750.46-28.10L750.46-28.10L750.46-28.10Q750.72-30.40 750.72-31.90L750.72-31.90L750.72-31.90Q750.72-33.41 750.66-34.50L750.66-34.50L750.66-34.50Q750.59-35.58 750.27-36.61L750.27-36.61L750.27-36.61Q749.63-38.98 747.68-38.98L747.68-38.98L747.68-38.98Q745.73-38.98 743.78-37.15L743.78-37.15L743.78-37.15Q741.82-35.33 740.16-32.26L740.16-32.26L740.16-32.26Q736.38-25.28 736.38-17.02L736.38-17.02L736.38-17.02Q736.38-13.06 738.62-10.78L738.62-10.78L738.62-10.78Q740.86-8.51 745.66-8.51L745.66-8.51L745.66-8.51Q749.25-8.51 752.64-10.88L752.64-10.88L752.64-10.88Q754.11-11.90 755.20-13.25ZM777.47-3.52L777.47-3.52L777.47-3.52Q775.49 1.28 769.15 1.28L769.15 1.28L769.15 1.28Q765.95 1.28 763.90-0.96L763.90-0.96L763.90-0.96Q762.24-2.82 762.24-4.93L762.24-4.93L762.24-4.93Q762.24-9.73 764.48-20.22L764.48-20.22L769.15-44.80L782.14-46.08L775.94-13.70L775.94-13.70Q774.85-8.96 774.85-7.30L774.85-7.30L774.85-7.30Q774.85-3.65 777.47-3.52ZM798.27-3.52L798.27-3.52L798.27-3.52Q796.29 1.28 789.95 1.28L789.95 1.28L789.95 1.28Q786.69 1.28 784.64-0.96L784.64-0.96L784.64-0.96Q782.91-2.94 782.91-4.93L782.91-4.93L782.91-4.93Q782.91-10.11 785.28-20.22L785.28-20.22L787.65-32.64L800.64-33.92L796.74-13.70L796.74-13.70Q795.65-8.96 795.65-7.30L795.65-7.30L795.65-7.30Q795.65-3.65 798.27-3.52ZM788.80-41.54L788.80-41.54L788.80-41.54Q788.80-44.03 790.88-45.38L790.88-45.38L790.88-45.38Q792.96-46.72 795.97-46.72L795.97-46.72L795.97-46.72Q798.98-46.72 800.80-45.38L800.80-45.38L800.80-45.38Q802.62-44.03 802.62-41.54L802.62-41.54L802.62-41.54Q802.62-39.04 800.61-37.76L800.61-37.76L800.61-37.76Q798.59-36.48 795.58-36.48L795.58-36.48L795.58-36.48Q792.58-36.48 790.69-37.76L790.69-37.76L790.69-37.76Q788.80-39.04 788.80-41.54ZM829.63-10.82L829.63-10.82L829.63-10.82Q831.23-9.73 831.23-7.33L831.23-7.33L831.23-7.33Q831.23-4.93 830.02-3.39L830.02-3.39L830.02-3.39Q828.80-1.86 826.82-0.83L826.82-0.83L826.82-0.83Q822.72 1.28 818.30 1.28L818.30 1.28L818.30 1.28Q813.89 1.28 811.30 0.32L811.30 0.32L811.30 0.32Q808.70-0.64 806.98-2.43L806.98-2.43L806.98-2.43Q803.58-5.82 803.58-12.03L803.58-12.03L803.58-12.03Q803.58-21.70 808.83-27.58L808.83-27.58L808.83-27.58Q814.46-33.92 824.26-33.92L824.26-33.92L824.26-33.92Q830.34-33.92 833.34-31.36L833.34-31.36L833.34-31.36Q835.58-29.44 835.58-26.30L835.58-26.30L835.58-26.30Q835.58-15.04 816.13-15.04L816.13-15.04L816.13-15.04Q815.87-13.38 815.87-11.97L815.87-11.97L815.87-11.97Q815.87-9.02 817.18-7.90L817.18-7.90L817.18-7.90Q818.50-6.78 820.93-6.78L820.93-6.78L820.93-6.78Q823.36-6.78 825.95-7.90L825.95-7.90L825.95-7.90Q828.54-9.02 829.63-10.82ZM816.58-17.79L816.58-17.79L816.58-17.79Q821.12-17.79 823.74-20.61L823.74-20.61L823.74-20.61Q826.37-23.30 826.37-27.58L826.37-27.58L826.37-27.58Q826.37-29.06 825.82-29.86L825.82-29.86L825.82-29.86Q825.28-30.66 824.19-30.66L824.19-30.66L824.19-30.66Q823.10-30.66 822.18-30.24L822.18-30.24L822.18-30.24Q821.25-29.82 820.29-28.42L820.29-28.42L820.29-28.42Q817.92-25.22 816.58-17.79ZM864.83 1.28L864.83 1.28L864.83 1.28Q857.09 1.28 857.09-4.74L857.09-4.74L857.09-4.74Q857.15-6.40 857.66-9.22L857.66-9.22L858.82-15.10L858.82-15.10Q860.54-23.42 860.54-25.28L860.54-25.28L860.54-25.28Q860.54-28.99 858.37-28.99L858.37-28.99L858.37-28.99Q854.72-28.99 852.80-19.46L852.80-19.46L849.02 0L836.16 1.28L842.82-32.70L853.31-33.92L852.29-27.65L852.29-27.65Q855.30-33.92 864.51-33.92L864.51-33.92L864.51-33.92Q868.99-33.92 870.88-32.03L870.88-32.03L870.88-32.03Q872.77-30.14 872.77-25.92L872.77-25.92L872.77-25.92Q872.77-21.95 870.72-12.67L870.72-12.67L870.72-12.67Q869.76-8.51 869.76-6.94L869.76-6.94L869.76-6.94Q869.76-5.38 870.62-4.48L870.62-4.48L870.62-4.48Q871.49-3.58 872.77-3.46L872.77-3.46L872.77-3.46Q872.13-1.28 869.92 0L869.92 0L869.92 0Q867.71 1.28 864.83 1.28ZM878.91-6.40L878.91-6.40L878.91-6.40Q878.91-8.13 879.81-12.48L879.81-12.48L883.20-29.76L879.42-29.76L879.68-31.68L879.68-31.68Q887.36-33.98 894.78-39.62L894.78-39.62L897.86-39.62L896.32-32.64L901.31-32.64L900.74-29.76L895.81-29.76L892.54-12.48L892.54-12.48Q891.71-8.51 891.71-7.17L891.71-7.17L891.71-7.17Q891.71-4.10 894.40-3.46L894.40-3.46L894.40-3.46Q893.76-1.28 891.46 0L891.46 0L891.46 0Q889.15 1.28 885.89 1.28L885.89 1.28L885.89 1.28Q882.62 1.28 880.77-0.77L880.77-0.77L880.77-0.77Q878.91-2.82 878.91-6.40ZM927.42 0L913.47 0L921.60-42.24L935.68-42.24L927.42 0ZM964.16 1.28L964.16 1.28L964.16 1.28Q956.42 1.28 956.42-4.74L956.42-4.74L956.42-4.74Q956.48-6.40 956.99-9.22L956.99-9.22L958.14-15.10L958.14-15.10Q959.87-23.42 959.87-25.28L959.87-25.28L959.87-25.28Q959.87-28.99 957.70-28.99L957.70-28.99L957.70-28.99Q954.05-28.99 952.13-19.46L952.13-19.46L948.35 0L935.49 1.28L942.14-32.70L952.64-33.92L951.62-27.65L951.62-27.65Q954.62-33.92 963.84-33.92L963.84-33.92L963.84-33.92Q968.32-33.92 970.21-32.03L970.21-32.03L970.21-32.03Q972.10-30.14 972.10-25.92L972.10-25.92L972.10-25.92Q972.10-21.95 970.05-12.67L970.05-12.67L970.05-12.67Q969.09-8.51 969.09-6.94L969.09-6.94L969.09-6.94Q969.09-5.38 969.95-4.48L969.95-4.48L969.95-4.48Q970.82-3.58 972.10-3.46L972.10-3.46L972.10-3.46Q971.46-1.28 969.25 0L969.25 0L969.25 0Q967.04 1.28 964.16 1.28ZM978.24-6.40L978.24-6.40L978.24-6.40Q978.24-8.13 979.14-12.48L979.14-12.48L982.53-29.76L978.75-29.76L979.01-31.68L979.01-31.68Q986.69-33.98 994.11-39.62L994.11-39.62L997.18-39.62L995.65-32.64L1000.64-32.64L1000.06-29.76L995.14-29.76L991.87-12.48L991.87-12.48Q991.04-8.51 991.04-7.17L991.04-7.17L991.04-7.17Q991.04-4.10 993.73-3.46L993.73-3.46L993.73-3.46Q993.09-1.28 990.78 0L990.78 0L990.78 0Q988.48 1.28 985.22 1.28L985.22 1.28L985.22 1.28Q981.95 1.28 980.10-0.77L980.10-0.77L980.10-0.77Q978.24-2.82 978.24-6.40ZM1025.98-10.82L1025.98-10.82L1025.98-10.82Q1027.58-9.73 1027.58-7.33L1027.58-7.33L1027.58-7.33Q1027.58-4.93 1026.37-3.39L1026.37-3.39L1026.37-3.39Q1025.15-1.86 1023.17-0.83L1023.17-0.83L1023.17-0.83Q1019.07 1.28 1014.66 1.28L1014.66 1.28L1014.66 1.28Q1010.24 1.28 1007.65 0.32L1007.65 0.32L1007.65 0.32Q1005.06-0.64 1003.33-2.43L1003.33-2.43L1003.33-2.43Q999.94-5.82 999.94-12.03L999.94-12.03L999.94-12.03Q999.94-21.70 1005.18-27.58L1005.18-27.58L1005.18-27.58Q1010.82-33.92 1020.61-33.92L1020.61-33.92L1020.61-33.92Q1026.69-33.92 1029.70-31.36L1029.70-31.36L1029.70-31.36Q1031.94-29.44 1031.94-26.30L1031.94-26.30L1031.94-26.30Q1031.94-15.04 1012.48-15.04L1012.48-15.04L1012.48-15.04Q1012.22-13.38 1012.22-11.97L1012.22-11.97L1012.22-11.97Q1012.22-9.02 1013.54-7.90L1013.54-7.90L1013.54-7.90Q1014.85-6.78 1017.28-6.78L1017.28-6.78L1017.28-6.78Q1019.71-6.78 1022.30-7.90L1022.30-7.90L1022.30-7.90Q1024.90-9.02 1025.98-10.82ZM1012.93-17.79L1012.93-17.79L1012.93-17.79Q1017.47-17.79 1020.10-20.61L1020.10-20.61L1020.10-20.61Q1022.72-23.30 1022.72-27.58L1022.72-27.58L1022.72-27.58Q1022.72-29.06 1022.18-29.86L1022.18-29.86L1022.18-29.86Q1021.63-30.66 1020.54-30.66L1020.54-30.66L1020.54-30.66Q1019.46-30.66 1018.53-30.24L1018.53-30.24L1018.53-30.24Q1017.60-29.82 1016.64-28.42L1016.64-28.42L1016.64-28.42Q1014.27-25.22 1012.93-17.79ZM1054.14-17.98L1054.14-17.98L1054.14-17.98Q1056.45-22.08 1056.45-26.24L1056.45-26.24L1056.45-26.24Q1056.45-28.99 1054.46-28.99L1054.46-28.99L1054.46-28.99Q1052.93-28.99 1051.33-26.37L1051.33-26.37L1051.33-26.37Q1049.66-23.74 1049.15-20.35L1049.15-20.35L1045.82 0L1032.58 1.28L1039.10-32.64L1049.66-33.92L1048.51-27.46L1048.51-27.46Q1051.65-33.92 1058.69-33.92L1058.69-33.92L1058.69-33.92Q1062.40-33.92 1064.42-32L1064.42-32L1064.42-32Q1066.43-30.08 1066.43-26.14L1066.43-26.14L1066.43-26.14Q1066.43-22.21 1063.84-19.71L1063.84-19.71L1063.84-19.71Q1061.25-17.22 1056.83-17.22L1056.83-17.22L1056.83-17.22Q1054.91-17.22 1054.14-17.98ZM1070.24-1.92L1070.24-1.92L1070.24-1.92Q1068.74-3.58 1068.06-6.21L1068.06-6.21L1068.06-6.21Q1067.39-8.83 1067.39-13.12L1067.39-13.12L1067.39-13.12Q1067.39-17.41 1068.86-21.31L1068.86-21.31L1068.86-21.31Q1070.34-25.22 1073.02-28.03L1073.02-28.03L1073.02-28.03Q1078.53-33.92 1087.62-33.92L1087.62-33.92L1087.62-33.92Q1090.88-33.92 1093.25-32.83L1093.25-32.83L1104.19-33.92L1099.46-8.96L1099.46-8.96Q1099.26-8.19 1099.26-6.78L1099.26-6.78L1099.26-6.78Q1099.26-5.38 1100.13-4.48L1100.13-4.48L1100.13-4.48Q1100.99-3.58 1102.27-3.46L1102.27-3.46L1102.27-3.46Q1101.63-1.28 1099.30 0L1099.30 0L1099.30 0Q1096.96 1.28 1094.34 1.28L1094.34 1.28L1094.34 1.28Q1091.71 1.28 1089.95 0.29L1089.95 0.29L1089.95 0.29Q1088.19-0.70 1087.68-2.37L1087.68-2.37L1087.68-2.37Q1086.66-0.77 1084.48 0.26L1084.48 0.26L1084.48 0.26Q1082.30 1.28 1079.39 1.28L1079.39 1.28L1079.39 1.28Q1076.48 1.28 1074.11 0.51L1074.11 0.51L1074.11 0.51Q1071.74-0.26 1070.24-1.92ZM1083.74-27.90L1083.74-27.90L1083.74-27.90Q1083.01-26.75 1082.37-24.80L1082.37-24.80L1082.37-24.80Q1081.73-22.85 1080.67-17.63L1080.67-17.63L1080.67-17.63Q1079.62-12.42 1079.62-8.70L1079.62-8.70L1079.62-8.70Q1079.62-4.99 1080.19-3.90L1080.19-3.90L1080.19-3.90Q1080.77-2.82 1081.79-2.82L1081.79-2.82L1081.79-2.82Q1083.84-2.82 1085.34-4.77L1085.34-4.77L1085.34-4.77Q1086.85-6.72 1087.42-10.18L1087.42-10.18L1090.82-28.93L1090.82-28.93Q1089.47-30.08 1087.90-30.08L1087.90-30.08L1087.90-30.08Q1086.34-30.08 1085.41-29.57L1085.41-29.57L1085.41-29.57Q1084.48-29.06 1083.74-27.90ZM1138.82-26.62L1138.82-26.62L1138.82-26.62Q1138.82-23.94 1136.58-22.27L1136.58-22.27L1136.58-22.27Q1134.34-20.61 1130.69-20.61L1130.69-20.61L1130.69-20.61Q1129.15-20.61 1128.26-21.06L1128.26-21.06L1128.26-21.06Q1128.96-22.72 1129.18-24.80L1129.18-24.80L1129.18-24.80Q1129.41-26.88 1129.41-27.46L1129.41-27.46L1129.41-27.46Q1129.41-30.14 1127.55-30.14L1127.55-30.14L1127.55-30.14Q1126.27-30.14 1124.83-28.54L1124.83-28.54L1124.83-28.54Q1123.39-26.94 1122.18-24.45L1122.18-24.45L1122.18-24.45Q1119.49-18.69 1119.49-12.86L1119.49-12.86L1119.49-12.86Q1119.49-9.66 1120.70-8.22L1120.70-8.22L1120.70-8.22Q1121.92-6.78 1124.61-6.78L1124.61-6.78L1124.61-6.78Q1128.32-6.78 1131.26-9.86L1131.26-9.86L1131.26-9.86Q1132.10-10.82 1132.54-11.90L1132.54-11.90L1132.54-11.90Q1134.98-10.62 1134.98-7.10L1134.98-7.10L1134.98-7.10Q1134.98-3.52 1131.01-1.15L1131.01-1.15L1131.01-1.15Q1126.91 1.28 1120.38 1.28L1120.38 1.28L1120.38 1.28Q1107.39 1.28 1107.39-12.48L1107.39-12.48L1107.39-12.48Q1107.39-22.53 1113.09-28.29L1113.09-28.29L1113.09-28.29Q1118.59-33.92 1128.70-33.92L1128.70-33.92L1128.70-33.92Q1138.82-33.92 1138.82-26.62ZM1141.57-6.40L1141.57-6.40L1141.57-6.40Q1141.57-8.13 1142.46-12.48L1142.46-12.48L1145.86-29.76L1142.08-29.76L1142.34-31.68L1142.34-31.68Q1150.02-33.98 1157.44-39.62L1157.44-39.62L1160.51-39.62L1158.98-32.64L1163.97-32.64L1163.39-29.76L1158.46-29.76L1155.20-12.48L1155.20-12.48Q1154.37-8.51 1154.37-7.17L1154.37-7.17L1154.37-7.17Q1154.37-4.10 1157.06-3.46L1157.06-3.46L1157.06-3.46Q1156.42-1.28 1154.11 0L1154.11 0L1154.11 0Q1151.81 1.28 1148.54 1.28L1148.54 1.28L1148.54 1.28Q1145.28 1.28 1143.42-0.77L1143.42-0.77L1143.42-0.77Q1141.57-2.82 1141.57-6.40ZM1179.01-3.52L1179.01-3.52L1179.01-3.52Q1177.02 1.28 1170.69 1.28L1170.69 1.28L1170.69 1.28Q1167.42 1.28 1165.38-0.96L1165.38-0.96L1165.38-0.96Q1163.65-2.94 1163.65-4.93L1163.65-4.93L1163.65-4.93Q1163.65-10.11 1166.02-20.22L1166.02-20.22L1168.38-32.64L1181.38-33.92L1177.47-13.70L1177.47-13.70Q1176.38-8.96 1176.38-7.30L1176.38-7.30L1176.38-7.30Q1176.38-3.65 1179.01-3.52ZM1169.54-41.54L1169.54-41.54L1169.54-41.54Q1169.54-44.03 1171.62-45.38L1171.62-45.38L1171.62-45.38Q1173.70-46.72 1176.70-46.72L1176.70-46.72L1176.70-46.72Q1179.71-46.72 1181.54-45.38L1181.54-45.38L1181.54-45.38Q1183.36-44.03 1183.36-41.54L1183.36-41.54L1183.36-41.54Q1183.36-39.04 1181.34-37.76L1181.34-37.76L1181.34-37.76Q1179.33-36.48 1176.32-36.48L1176.32-36.48L1176.32-36.48Q1173.31-36.48 1171.42-37.76L1171.42-37.76L1171.42-37.76Q1169.54-39.04 1169.54-41.54ZM1198.40 1.28L1198.40 1.28L1198.40 1.28Q1184.32 1.28 1184.32-11.97L1184.32-11.97L1184.32-11.97Q1184.32-21.38 1189.50-27.46L1189.50-27.46L1189.50-27.46Q1195.01-33.92 1204.54-33.92L1204.54-33.92L1204.54-33.92Q1211.46-33.92 1214.98-30.72L1214.98-30.72L1214.98-30.72Q1218.50-27.52 1218.50-20.80L1218.50-20.80L1218.50-20.80Q1218.50-10.56 1212.99-4.61L1212.99-4.61L1212.99-4.61Q1207.62 1.28 1198.40 1.28ZM1200.06-26.56L1200.06-26.56L1200.06-26.56Q1199.30-24.83 1198.69-22.24L1198.69-22.24L1198.69-22.24Q1198.08-19.65 1197.31-15.55L1197.31-15.55L1197.31-15.55Q1196.54-11.46 1196.54-6.40L1196.54-6.40L1196.54-6.40Q1196.54-4.74 1197.09-3.65L1197.09-3.65L1197.09-3.65Q1197.63-2.56 1199.10-2.56L1199.10-2.56L1199.10-2.56Q1200.58-2.56 1201.50-3.26L1201.50-3.26L1201.50-3.26Q1202.43-3.97 1203.14-5.63L1203.14-5.63L1203.14-5.63Q1204.42-8.58 1205.44-14.05L1205.44-14.05L1205.44-14.05Q1206.46-19.52 1206.56-21.89L1206.56-21.89L1206.56-21.89Q1206.66-24.26 1206.66-26.02L1206.66-26.02L1206.66-26.02Q1206.66-27.78 1206.14-28.93L1206.14-28.93L1206.14-28.93Q1205.63-30.08 1204.19-30.08L1204.19-30.08L1204.19-30.08Q1202.75-30.08 1201.79-29.18L1201.79-29.18L1201.79-29.18Q1200.83-28.29 1200.06-26.56ZM1249.34 1.28L1249.34 1.28L1249.34 1.28Q1241.60 1.28 1241.60-4.74L1241.60-4.74L1241.60-4.74Q1241.66-6.40 1242.18-9.22L1242.18-9.22L1243.33-15.10L1243.33-15.10Q1245.06-23.42 1245.06-25.28L1245.06-25.28L1245.06-25.28Q1245.06-28.99 1242.88-28.99L1242.88-28.99L1242.88-28.99Q1239.23-28.99 1237.31-19.46L1237.31-19.46L1233.54 0L1220.67 1.28L1227.33-32.70L1237.82-33.92L1236.80-27.65L1236.80-27.65Q1239.81-33.92 1249.02-33.92L1249.02-33.92L1249.02-33.92Q1253.50-33.92 1255.39-32.03L1255.39-32.03L1255.39-32.03Q1257.28-30.14 1257.28-25.92L1257.28-25.92L1257.28-25.92Q1257.28-21.95 1255.23-12.67L1255.23-12.67L1255.23-12.67Q1254.27-8.51 1254.27-6.94L1254.27-6.94L1254.27-6.94Q1254.27-5.38 1255.14-4.48L1255.14-4.48L1255.14-4.48Q1256.00-3.58 1257.28-3.46L1257.28-3.46L1257.28-3.46Q1256.64-1.28 1254.43 0L1254.43 0L1254.43 0Q1252.22 1.28 1249.34 1.28ZM1281.54-22.46L1281.54-22.46L1281.54-22.46Q1282.43-24.83 1282.43-26.88L1282.43-26.88L1282.43-26.88Q1282.43-30.66 1279.36-30.66L1279.36-30.66L1279.36-30.66Q1277.76-30.66 1276.45-29.22L1276.45-29.22L1276.45-29.22Q1275.14-27.78 1275.14-25.98L1275.14-25.98L1275.14-25.98Q1275.14-24.70 1276.16-23.68L1276.16-23.68L1276.16-23.68Q1277.63-22.27 1281.41-19.97L1281.41-19.97L1281.41-19.97Q1285.18-17.66 1286.62-15.78L1286.62-15.78L1286.62-15.78Q1288.06-13.89 1288.06-11.30L1288.06-11.30L1288.06-11.30Q1288.06-8.70 1286.82-6.34L1286.82-6.34L1286.82-6.34Q1285.57-3.97 1283.33-2.30L1283.33-2.30L1283.33-2.30Q1278.53 1.28 1270.85 1.28L1270.85 1.28L1270.85 1.28Q1266.69 1.28 1263.49-0.90L1263.49-0.90L1263.49-0.90Q1260.29-3.01 1260.29-5.50L1260.29-5.50L1260.29-5.50Q1260.29-8 1262.11-9.47L1262.11-9.47L1262.11-9.47Q1263.94-10.94 1266.62-10.94L1266.62-10.94L1266.62-10.94Q1269.31-10.94 1270.98-9.92L1270.98-9.92L1270.98-9.92Q1270.14-7.81 1270.14-6.40L1270.14-6.40L1270.14-6.40Q1270.14-2.18 1273.73-2.18L1273.73-2.18L1273.73-2.18Q1275.26-2.18 1276.29-3.14L1276.29-3.14L1276.29-3.14Q1277.31-4.10 1277.31-5.76L1277.31-5.76L1277.31-5.76Q1277.31-9.02 1271.81-12.48L1271.81-12.48L1271.81-12.48Q1267.33-15.42 1266.30-16.58L1266.30-16.58L1266.30-16.58Q1264.58-18.62 1264.58-21.18L1264.58-21.18L1264.58-21.18Q1264.58-23.74 1265.79-26.18L1265.79-26.18L1265.79-26.18Q1267.01-28.61 1269.25-30.34L1269.25-30.34L1269.25-30.34Q1273.92-33.92 1282.05-33.92L1282.05-33.92L1282.05-33.92Q1286.21-33.92 1288.67-32.26L1288.67-32.26L1288.67-32.26Q1291.14-30.59 1291.14-27.78L1291.14-27.78L1291.14-27.78Q1291.14-24.96 1289.44-23.36L1289.44-23.36L1289.44-23.36Q1287.74-21.76 1284.67-21.76L1284.67-21.76L1284.67-21.76Q1282.56-21.76 1281.54-22.46Z" fill="#ffd5af"></path></g></g><style>text {
  font-size: 64px;
  font-family: Arial Black;
  dominant-baseline: central;
  text-anchor: middle;
}</style></svg>